<svg viewBox="0 0 512 512" width="512" height="512" xmlns="http://www.w3.org/2000/svg" role="img" aria-label="PhySim">
<rect x="16" y="16" width="480" height="480" rx="104" fill="#16181c" stroke="#2c3037" stroke-width="4"></rect>
<polygon points="133,371 256,419 256,269 133,221" fill="#e6e7ed" stroke="#23262d" stroke-width="6" stroke-linejoin="round"></polygon><polygon points="379,371 256,419 256,269 379,221" fill="#aab0bd" stroke="#23262d" stroke-width="6" stroke-linejoin="round"></polygon><polygon points="256,173 133,221 256,269 379,221" fill="#f1f2f6" stroke="#23262d" stroke-width="6" stroke-linejoin="round"></polygon><polygon points="226.5,248.8 285.5,248.8 327.3,232.5 327.3,209.5 285.5,193.2 226.5,193.2 184.7,209.5 184.7,232.5" fill="#2b2d35" stroke="#23262d" stroke-width="6" stroke-linejoin="round"></polygon><polygon points="232.2,243.4 279.8,243.4 279.8,219.4 232.2,219.4" fill="#9ea3ae" stroke="#23262d" stroke-width="6" stroke-linejoin="round"></polygon><polygon points="279.8,243.4 313.4,230.3 313.4,206.3 279.8,219.4" fill="#878c98" stroke="#23262d" stroke-width="6" stroke-linejoin="round"></polygon><polygon points="198.6,230.3 232.2,243.4 232.2,219.4 198.6,206.3" fill="#b7bbc5" stroke="#23262d" stroke-width="6" stroke-linejoin="round"></polygon><polygon points="232.2,219.4 279.8,219.4 313.4,206.3 313.4,187.7 279.8,174.6 232.2,174.6 198.6,187.7 198.6,206.3" fill="#454854" stroke="#23262d" stroke-width="6" stroke-linejoin="round"></polygon><polygon points="233.9,197 256,205.6 256,169.6 233.9,161" fill="#d6d9df" stroke="#23262d" stroke-width="5" stroke-linejoin="round"></polygon><polygon points="278.1,197 256,205.6 256,169.6 278.1,161" fill="#aeb3bd" stroke="#23262d" stroke-width="5" stroke-linejoin="round"></polygon><polygon points="256,152.4 233.9,161 256,169.6 278.1,161" fill="#e4e6eb" stroke="#23262d" stroke-width="5" stroke-linejoin="round"></polygon><polygon points="256,157.6 247.4,161 256,164.4 264.6,161" fill="#2b2d35"></polygon><circle cx="194.5" cy="320" r="13" fill="#2b2d35"></circle><circle cx="317.5" cy="320" r="13" fill="#2b2d35"></circle><line x1="194.5" y1="320" x2="93.9" y2="359.3" stroke="#ff5f5f" stroke-width="18" stroke-linecap="round"></line><polygon points="47.3,377.4 88.2,333.6 107.1,382" fill="#ff5f5f" stroke="#ff5f5f" stroke-width="6" stroke-linejoin="round"></polygon><line x1="317.5" y1="320" x2="418.1" y2="359.3" stroke="#5aa0ff" stroke-width="18" stroke-linecap="round"></line><polygon points="464.7,377.4 404.9,382 423.8,333.6" fill="#5aa0ff" stroke="#5aa0ff" stroke-width="6" stroke-linejoin="round"></polygon><line x1="256" y1="161" x2="256" y2="100" stroke="#5ee07a" stroke-width="18" stroke-linecap="round"></line><polygon points="256,50 282,104 230,104" fill="#5ee07a" stroke="#5ee07a" stroke-width="6" stroke-linejoin="round"></polygon><text x="69.3" y="439.4" fill="#ff5f5f" font-family="'Chakra Petch', sans-serif" font-weight="700" font-size="62" text-anchor="middle" dominant-baseline="central">X</text><text x="314" y="84" fill="#5ee07a" font-family="'Chakra Petch', sans-serif" font-weight="700" font-size="62" text-anchor="middle" dominant-baseline="central">Y</text><text x="442.7" y="439.4" fill="#5aa0ff" font-family="'Chakra Petch', sans-serif" font-weight="700" font-size="62" text-anchor="middle" dominant-baseline="central">Z</text>
</svg>
